<svg width="2123" height="2051" viewBox="0 0 2123 2051" fill="none" xmlns="http://www.w3.org/2000/svg">
<path d="M52.0974 690.672C-33.9162 591.093 7.06076 506.436 38.301 476.556L482.886 0.0988799L2122.3 1529.84L1677.71 2006.3C1650.06 2039.53 1568.44 2086.26 1463.15 2007.34C1331.54 1908.68 1292.62 1956.88 1240.18 1976.37C1187.73 1995.86 1124.52 2005.3 1049.3 1880.77C974.071 1756.24 882.931 1653.08 742.21 1650.57C629.634 1648.56 564.587 1599.54 542.811 1579.22C521.034 1558.9 467.632 1497.4 457.845 1385.23C445.611 1245.02 336.403 1161.23 206.972 1094.79C77.5404 1028.35 82.587 964.638 98.405 910.975C114.223 857.313 159.615 815.146 52.0974 690.672Z" fill="black"/>
<path d="M52.0974 690.672C-33.9162 591.093 7.06076 506.436 38.301 476.556L482.886 0.0988799L2122.3 1529.84L1677.71 2006.3C1650.06 2039.53 1568.44 2086.26 1463.15 2007.34C1331.54 1908.68 1292.62 1956.88 1240.18 1976.37C1187.73 1995.86 1124.52 2005.3 1049.3 1880.77C974.071 1756.24 882.931 1653.08 742.21 1650.57C629.634 1648.56 564.587 1599.54 542.811 1579.22C521.034 1558.9 467.632 1497.4 457.845 1385.23C445.611 1245.02 336.403 1161.23 206.972 1094.79C77.5404 1028.35 82.587 964.638 98.405 910.975C114.223 857.313 159.615 815.146 52.0974 690.672Z" fill="url(#paint0_linear_210_465)"/>
<defs>
<linearGradient id="paint0_linear_210_465" x1="-765.041" y1="208.27" x2="1226.03" y2="1813.53" gradientUnits="userSpaceOnUse">
<stop stop-color="#ED374D"/>
<stop offset="0.505208" stop-color="#FA793F"/>
<stop offset="1" stop-color="#F7F651"/>
</linearGradient>
</defs>
</svg>
