<svg width="2626" height="2045" viewBox="0 0 2626 2045" fill="none" xmlns="http://www.w3.org/2000/svg">
<path opacity="0.02" d="M93.1527 883.926C-28.8095 794.786 -4.86775 689.497 22.3484 647.995L396.421 0.0831973L2625.78 1287.2L2251.71 1935.12C2229.37 1979.44 2150.16 2052.82 2011.98 1991.76C1839.26 1915.45 1808.18 1979.43 1754.56 2014.79C1700.95 2050.15 1632.68 2077.06 1516.33 1957.22C1399.99 1837.38 1271.37 1745.57 1113.31 1779.15C986.872 1806.01 901.436 1768 871.824 1750.9C842.211 1733.81 766.573 1678.82 726.618 1555.89C676.675 1402.22 532.851 1336.74 370.895 1295.9C208.939 1255.06 198.107 1182.48 201.922 1118.37C205.738 1054.26 245.606 995.351 93.1527 883.926Z" fill="black"/>
</svg>
