<svg width="1593" height="2337" viewBox="0 0 1593 2337" fill="none" xmlns="http://www.w3.org/2000/svg">
<path d="M93.0882 434.619C58.944 307.542 132.661 249.133 173.788 235.813L781.342 0.135126L1592.27 2090.63L984.717 2326.31C945.366 2344.21 851.545 2350.79 791.063 2233.93C715.46 2087.85 659.444 2114.32 603.746 2109.06C548.049 2103.81 487.023 2084.81 473.444 1939.96C459.865 1795.11 422.66 1662.58 297.038 1599.12C196.54 1548.35 159.289 1475.92 148.517 1448.15C137.746 1420.38 116.406 1341.77 156.378 1236.51C206.341 1104.94 144.445 981.988 56.7905 865.872C-30.8637 749.755 1.39066 694.577 38.9731 653.135C76.5555 611.693 135.768 593.465 93.0882 434.619Z" fill="url(#paint0_linear_205_228)"/>
<defs>
<linearGradient id="paint0_linear_205_228" x1="210.629" y1="336.698" x2="885.053" y2="2846.95" gradientUnits="userSpaceOnUse">
<stop stop-color="#ED374D"/>
<stop offset="0.505208" stop-color="#FA793F"/>
<stop offset="1" stop-color="#F7F651"/>
</linearGradient>
</defs>
</svg>
