<svg width="1782" height="2137" viewBox="0 0 1782 2137" fill="none" xmlns="http://www.w3.org/2000/svg">
<path d="M46.8406 534.767C-6.33853 414.408 57.5773 345.411 96.1825 325.958L660.54 0.125519L1781.68 1941.99L1617.32 2117.82C1581.17 2141.53 1489.46 2162.38 1411.81 2056.15C1314.76 1923.35 1263.45 1958.08 1207.6 1961.4C1151.76 1964.73 762.339 2055.45 652.968 1954.22C546.197 1855.4 560.356 1697.88 426.505 1654.37C319.424 1619.57 271.532 1553.69 256.64 1527.89C241.748 1502.1 208.637 1427.68 232.037 1317.55C261.289 1179.88 181.315 1067.84 76.9316 966.498C-27.4517 865.154 -4.0164 805.693 26.7851 758.99C57.5866 712.287 113.315 685.216 46.8406 534.767Z" fill="url(#paint0_linear_205_229)"/>
<defs>
<linearGradient id="paint0_linear_205_229" x1="610.972" y1="28.5763" x2="897.105" y2="2746.88" gradientUnits="userSpaceOnUse">
<stop stop-color="#ED374D"/>
<stop offset="0.505208" stop-color="#FA793F"/>
<stop offset="1" stop-color="#F7F651"/>
</linearGradient>
</defs>
</svg>
