<svg width="2004" height="1618" viewBox="0 0 2004 1618" fill="none" xmlns="http://www.w3.org/2000/svg">
<path d="M0.128887 1305.5C-2.06422 1334.69 22.8912 1395.49 139.74 1405.04C263.1 1415.13 279.456 1446.51 295.037 1476.4C297.905 1481.9 300.746 1487.36 304.222 1492.61C326.592 1526.45 362.12 1560.28 487.127 1533.41C612.134 1506.55 734.509 1497.59 827.935 1561.28C902.676 1612.23 975.027 1618 1001.63 1618C1028.23 1618 1100.58 1612.23 1175.32 1561.28C1268.75 1497.59 1391.12 1506.55 1516.13 1533.41C1641.14 1560.28 1676.67 1526.45 1699.04 1492.61C1702.51 1487.36 1705.35 1481.9 1708.22 1476.4C1723.8 1446.51 1740.16 1415.13 1863.52 1405.04C1980.37 1395.49 2005.19 1334.72 2003 1305.53V0H2001.4C1993.91 31.134 1960.24 74.134 1863.52 82.0419C1740.16 92.1276 1723.8 123.509 1708.22 153.403C1705.35 158.904 1702.51 164.355 1699.04 169.614C1676.67 203.448 1641.14 237.282 1516.13 210.414C1391.12 183.545 1268.75 174.589 1175.32 238.278C1100.58 289.228 1028.23 295 1001.63 295C975.027 295 902.676 289.228 827.935 238.278C734.509 174.589 612.134 183.545 487.127 210.414C362.12 237.282 326.592 203.448 304.222 169.614C300.746 164.355 297.905 158.904 295.037 153.403C279.456 123.509 263.1 92.1276 139.74 82.0419C43.0176 74.134 9.34761 31.134 1.86208 0H0.258341L0.128887 1305.5Z" fill="#F2F0F4"/>
</svg>
